<?xml version="1.0" encoding="UTF-8"?>
<svg id="Layer_2" data-name="Layer 2" xmlns="http://www.w3.org/2000/svg" viewBox="0 0 428.13 406.75">
  <defs>
    <style>
      .cls-1 {
        fill: #00bf63;
      }

      .cls-1, .cls-2, .cls-3 {
        stroke-width: 0px;
      }

      .cls-3 {
        fill: #fff;
      }
    </style>
  </defs>
  <g id="Layer_1-2" data-name="Layer 1">
    <g>
      <g>
        <path class="cls-1" d="m368.3,396.28c-7.52-3.22-14.87-6.37-22.09-9.48-20.24-8.7-39.35-16.91-58.63-24.85-4.18-1.72-8.59-2.67-12.42-2.67-.73,0-1.45.03-2.14.1-5.88.59-11.9,1.73-17.72,2.83-5.94,1.12-12.08,2.28-18.26,2.91-8.99.92-17.95,1.38-26.63,1.38-55.6,0-105.35-18.88-147.88-56.12-34.24-29.99-53.59-66.85-57.49-109.58C.28,148.84,18.14,103.06,58.12,64.73c20.51-19.66,44.91-34.92,72.52-45.34,26.56-10.03,54.75-15.11,83.79-15.11,56.58,0,109.63,19.36,149.36,54.5,37.82,33.45,59.14,77.31,60.02,123.49.88,45.99-18.62,90.41-54.9,125.05-8.08,7.72-10.29,15.26-7.61,26.04,3.2,12.91,5.96,25.88,8.89,39.61,1.28,6,2.58,12.13,3.97,18.46l1.78,8.12-7.64-3.27Z"/>
        <path class="cls-2" d="m214.43,8.56c53.11,0,106.21,17.77,146.53,53.43,76.12,67.33,78.4,172.14,5,242.24-8.98,8.58-11.91,17.7-8.81,30.16,4.59,18.47,8.29,37.2,12.83,57.95-28.51-12.19-54.55-23.55-80.78-34.35-4.36-1.8-9.34-2.99-14.05-2.99-.86,0-1.72.04-2.56.12-12.06,1.21-23.93,4.51-35.99,5.74-8.85.9-17.58,1.36-26.2,1.36-53.36,0-102.16-17.5-145.06-55.06-31.35-27.45-52.01-62.54-56.05-106.75-4.93-53.98,15.18-97.49,51.79-132.59C102.23,28.36,158.34,8.55,214.43,8.56m0-8.56h-.02c-29.55,0-58.25,5.18-85.3,15.39-28.16,10.63-53.04,26.19-73.97,46.26C14.19,100.92-4.1,147.87.77,201.19c4.01,43.86,23.84,81.68,58.94,112.41,43.33,37.94,94.03,57.18,150.69,57.18,8.83,0,17.94-.47,27.07-1.4,6.36-.65,12.59-1.83,18.62-2.96,6-1.13,11.66-2.2,17.35-2.77.54-.05,1.12-.08,1.71-.08,3.29,0,7.12.83,10.79,2.35,19.25,7.93,38.35,16.14,58.57,24.83,7.23,3.11,14.58,6.26,22.1,9.48l15.28,6.53-3.55-16.23c-1.38-6.31-2.7-12.48-3.96-18.44-2.93-13.76-5.7-26.77-8.92-39.74-2.31-9.3-.57-15.24,6.42-21.91,37.16-35.48,57.12-81.02,56.22-128.23-.91-47.39-22.73-92.36-61.46-126.61-20.52-18.15-44.5-32.19-71.26-41.74C269.62,4.66,242.39,0,214.44,0h0Z"/>
      </g>
      <g>
        <g>
          <path class="cls-3" d="m159.46,163.38v-72.33h-19.37c-.73,0-1.34-.25-1.83-.74-.5-.5-.75-1.1-.75-1.83v-14.76c0-.72.25-1.33.75-1.83.49-.5,1.1-.74,1.83-.74h60.13c.72,0,1.33.25,1.83.74.49.5.74,1.11.74,1.83v14.76c0,.73-.25,1.33-.74,1.83-.5.5-1.11.74-1.83.74h-19.37v72.33c0,.63-.27,1.22-.81,1.76-.54.54-1.13.81-1.76.81h-16.25c-.63,0-1.22-.27-1.76-.81-.54-.54-.81-1.13-.81-1.76Z"/>
          <path class="cls-2" d="m233.13,163.38v-89.66c0-.72.25-1.33.75-1.83.49-.5,1.1-.74,1.83-.74h16.12c.72,0,1.33.27,1.83.81.49.54.74,1.13.74,1.76v72.33h32.23c.72,0,1.33.25,1.83.75s.75,1.11.75,1.83v14.76c0,.72-.25,1.33-.75,1.83-.5.5-1.11.74-1.83.74h-50.93c-.72,0-1.33-.25-1.83-.74-.5-.5-.75-1.11-.75-1.83Z"/>
        </g>
        <g>
          <path class="cls-2" d="m132.72,278.01v-89.66c0-.72.25-1.33.75-1.83.49-.5,1.06-.74,1.69-.74h33.05c13.09,0,24.29,4.63,33.59,13.88,9.3,9.26,13.95,20.38,13.95,33.39s-4.65,24.29-13.95,33.59c-9.3,9.3-20.5,13.95-33.59,13.95h-33.05c-.63,0-1.2-.25-1.69-.74-.5-.5-.75-1.11-.75-1.83Zm21.13-17.47h13c7.59,0,13.88-2.64,18.89-7.92,5.01-5.28,7.52-11.81,7.52-19.57s-2.51-14.15-7.52-19.44c-5.01-5.28-11.31-7.92-18.89-7.92h-13v54.85Z"/>
          <path class="cls-3" d="m232.27,278.01v-89.66c0-.72.25-1.33.75-1.83.49-.5,1.1-.74,1.83-.74h40.5c8.13,0,15.08,2.87,20.86,8.6,5.77,5.74,8.67,12.62,8.67,20.66,0,6.05-1.83,11.49-5.48,16.32-3.66,4.83-8.51,8.47-14.56,10.9l18.55,34.4c.54.9.56,1.78.07,2.64-.5.86-1.29,1.29-2.37,1.29h-18.01c-.99,0-1.71-.41-2.17-1.22l-18.01-35.89h-9.35v34.54c0,.63-.25,1.22-.74,1.76-.5.54-1.11.81-1.83.81h-16.12c-.72,0-1.33-.25-1.83-.74-.5-.5-.75-1.11-.75-1.83Zm21.26-51.74h20.05c2.8,0,5.21-1.08,7.25-3.25,2.03-2.17,3.05-4.69,3.05-7.58s-1.02-5.21-3.05-7.25c-2.03-2.03-4.45-3.05-7.25-3.05h-20.05v21.13Z"/>
        </g>
      </g>
    </g>
  </g>
</svg>