<svg xmlns="http://www.w3.org/2000/svg" width="300" height="200" viewBox="0 0 300 200">
  <rect width="300" height="200" fill="#f8f8f8" />
  
  <!-- Header -->
  <rect x="0" y="0" width="300" height="40" rx="0" fill="#ffffff" />
  <rect x="20" y="15" width="60" height="10" rx="2" fill="#333333" />
  <rect x="200" y="15" width="25" height="10" rx="2" fill="#555555" />
  <rect x="235" y="15" width="25" height="10" rx="2" fill="#555555" />
  <rect x="270" y="15" width="25" height="10" rx="2" fill="#555555" />
  
  <!-- Page Title -->
  <rect x="20" y="55" width="120" height="15" rx="2" fill="#333333" />
  
  <!-- Contact Form -->
  <rect x="20" y="80" width="140" height="100" rx="4" fill="#ffffff" stroke="#e0e0e0" />
  <rect x="30" y="90" width="120" height="10" rx="2" fill="#555555" />
  <rect x="30" y="105" width="120" height="7" rx="2" fill="#e0e0e0" />
  <rect x="30" y="120" width="120" height="10" rx="2" fill="#555555" />
  <rect x="30" y="135" width="120" height="7" rx="2" fill="#e0e0e0" />
  <rect x="30" y="150" width="120" height="10" rx="2" fill="#555555" />
  <rect x="30" y="165" width="60" height="10" rx="5" fill="#333333" />
  
  <!-- Contact Info -->
  <rect x="180" y="80" width="100" height="100" rx="0" fill="#ffffff" />
  <rect x="180" y="90" width="60" height="10" rx="2" fill="#333333" />
  <rect x="180" y="105" width="100" height="5" rx="1" fill="#555555" />
  <rect x="180" y="115" width="80" height="5" rx="1" fill="#555555" />
  
  <rect x="180" y="130" width="60" height="10" rx="2" fill="#333333" />
  <rect x="180" y="145" width="100" height="5" rx="1" fill="#555555" />
  <rect x="180" y="155" width="80" height="5" rx="1" fill="#555555" />
  
  <!-- Social Media Icons -->
  <circle cx="190" cy="175" r="5" fill="#555555" />
  <circle cx="210" cy="175" r="5" fill="#555555" />
  <circle cx="230" cy="175" r="5" fill="#555555" />
  <circle cx="250" cy="175" r="5" fill="#555555" />
</svg> 