<svg xmlns="http://www.w3.org/2000/svg" width="300" height="200" viewBox="0 0 300 200">
  <rect width="300" height="200" fill="#f8f9fa" />
  
  <!-- Header -->
  <rect x="20" y="20" width="260" height="30" rx="4" fill="#4a6cf7" />
  <rect x="30" y="30" width="80" height="10" rx="2" fill="white" />
  <circle cx="250" cy="35" r="5" fill="white" />
  <circle cx="270" cy="35" r="5" fill="white" />
  
  <!-- Hero section -->
  <rect x="20" y="60" width="260" height="50" rx="4" fill="#e9ecef" />
  <rect x="40" y="70" width="120" height="10" rx="2" fill="#495057" />
  <rect x="40" y="90" width="180" height="8" rx="2" fill="#adb5bd" />
  
  <!-- Content blocks -->
  <rect x="20" y="120" width="80" height="60" rx="4" fill="#e9ecef" />
  <rect x="110" y="120" width="80" height="60" rx="4" fill="#e9ecef" />
  <rect x="200" y="120" width="80" height="60" rx="4" fill="#e9ecef" />
  
  <rect x="35" y="130" width="50" height="8" rx="2" fill="#495057" />
  <rect x="35" y="145" width="50" height="5" rx="2" fill="#adb5bd" />
  <rect x="35" y="155" width="50" height="5" rx="2" fill="#adb5bd" />
  
  <rect x="125" y="130" width="50" height="8" rx="2" fill="#495057" />
  <rect x="125" y="145" width="50" height="5" rx="2" fill="#adb5bd" />
  <rect x="125" y="155" width="50" height="5" rx="2" fill="#adb5bd" />
  
  <rect x="215" y="130" width="50" height="8" rx="2" fill="#495057" />
  <rect x="215" y="145" width="50" height="5" rx="2" fill="#adb5bd" />
  <rect x="215" y="155" width="50" height="5" rx="2" fill="#adb5bd" />
</svg> 