<svg xmlns="http://www.w3.org/2000/svg" width="300" height="200" viewBox="0 0 300 200">
  <rect width="300" height="200" fill="#f0f5f9" />
  
  <!-- Header -->
  <rect x="0" y="0" width="300" height="40" rx="0" fill="#2c3e50" />
  <rect x="20" y="15" width="60" height="10" rx="2" fill="#ffffff" />
  <rect x="200" y="15" width="20" height="10" rx="2" fill="#ffffff" />
  <rect x="230" y="15" width="20" height="10" rx="2" fill="#ffffff" />
  <rect x="260" y="15" width="20" height="10" rx="2" fill="#ffffff" />
  
  <!-- Hero section -->
  <rect x="0" y="40" width="300" height="60" fill="#3498db" />
  <rect x="40" y="55" width="140" height="14" rx="2" fill="#ffffff" />
  <rect x="40" y="75" width="100" height="10" rx="2" fill="#ffffff" opacity="0.8" />
  <rect x="200" y="65" width="60" height="20" rx="4" fill="#e74c3c" />
  
  <!-- Content section 1 -->
  <rect x="20" y="120" width="260" height="1" fill="#cfd8dc" />
  <rect x="20" y="135" width="80" height="10" rx="2" fill="#2c3e50" />
  <rect x="20" y="150" width="260" height="6" rx="1" fill="#7f8c8d" opacity="0.6" />
  <rect x="20" y="160" width="200" height="6" rx="1" fill="#7f8c8d" opacity="0.6" />
  
  <!-- Footer -->
  <rect x="0" y="180" width="300" height="20" fill="#2c3e50" />
  <rect x="20" y="187" width="40" height="6" rx="1" fill="#ffffff" opacity="0.5" />
  <rect x="70" y="187" width="40" height="6" rx="1" fill="#ffffff" opacity="0.5" />
  <rect x="120" y="187" width="40" height="6" rx="1" fill="#ffffff" opacity="0.5" />
  <rect x="240" y="187" width="40" height="6" rx="1" fill="#ffffff" opacity="0.5" />
</svg> 