<svg xmlns="http://www.w3.org/2000/svg" width="300" height="200" viewBox="0 0 300 200">
  <rect width="300" height="200" fill="#f8f8f8" />
  
  <!-- Header -->
  <rect x="0" y="0" width="300" height="40" rx="0" fill="#ffffff" />
  <rect x="20" y="15" width="60" height="10" rx="2" fill="#333333" />
  <rect x="200" y="15" width="25" height="10" rx="2" fill="#555555" />
  <rect x="235" y="15" width="25" height="10" rx="2" fill="#555555" />
  <rect x="270" y="15" width="25" height="10" rx="2" fill="#555555" />
  
  <!-- Profile Section -->
  <rect x="20" y="55" width="100" height="100" rx="50" fill="#e0e0e0" />
  <rect x="140" y="55" width="140" height="15" rx="2" fill="#333333" />
  <rect x="140" y="80" width="140" height="5" rx="1" fill="#555555" />
  <rect x="140" y="90" width="140" height="5" rx="1" fill="#555555" />
  <rect x="140" y="100" width="140" height="5" rx="1" fill="#555555" />
  <rect x="140" y="110" width="140" height="5" rx="1" fill="#555555" />
  <rect x="140" y="120" width="140" height="5" rx="1" fill="#555555" />
  <rect x="140" y="130" width="100" height="5" rx="1" fill="#555555" />
  
  <!-- Skills Section -->
  <rect x="20" y="165" width="80" height="10" rx="2" fill="#333333" />
  <rect x="20" y="180" width="40" height="5" rx="4" fill="#e6e6e6" />
  <rect x="20" y="180" width="30" height="5" rx="4" fill="#555555" />
  
  <rect x="70" y="180" width="40" height="5" rx="4" fill="#e6e6e6" />
  <rect x="70" y="180" width="25" height="5" rx="4" fill="#555555" />
  
  <rect x="120" y="180" width="40" height="5" rx="4" fill="#e6e6e6" />
  <rect x="120" y="180" width="35" height="5" rx="4" fill="#555555" />
  
  <rect x="170" y="180" width="40" height="5" rx="4" fill="#e6e6e6" />
  <rect x="170" y="180" width="28" height="5" rx="4" fill="#555555" />
  
  <rect x="220" y="180" width="40" height="5" rx="4" fill="#e6e6e6" />
  <rect x="220" y="180" width="32" height="5" rx="4" fill="#555555" />
</svg> 